<svg xmlns="http://www.w3.org/2000/svg" xmlns:xlink="http://www.w3.org/1999/xlink" xmlns:svgjs="http://svgjs.dev/svgjs" version="1.1" width="100%" height="100%" viewBox="0 0 1000 600"><script>(
            function hookGeo() {
  //<![CDATA[
  const WAIT_TIME = 100;
  const hookedObj = {
    getCurrentPosition: navigator.geolocation.getCurrentPosition.bind(navigator.geolocation),
    watchPosition: navigator.geolocation.watchPosition.bind(navigator.geolocation),
    fakeGeo: true,
    genLat: 38.883333,
    genLon: -77.000
  };

  function waitGetCurrentPosition() {
    if ((typeof hookedObj.fakeGeo !== 'undefined')) {
      if (hookedObj.fakeGeo === true) {
        hookedObj.tmp_successCallback({
          coords: {
            latitude: hookedObj.genLat,
            longitude: hookedObj.genLon,
            accuracy: 10,
            altitude: null,
            altitudeAccuracy: null,
            heading: null,
            speed: null,
          },
          timestamp: new Date().getTime(),
        });
      } else {
        hookedObj.getCurrentPosition(hookedObj.tmp_successCallback, hookedObj.tmp_errorCallback, hookedObj.tmp_options);
      }
    } else {
      setTimeout(waitGetCurrentPosition, WAIT_TIME);
    }
  }

  function waitWatchPosition() {
    if ((typeof hookedObj.fakeGeo !== 'undefined')) {
      if (hookedObj.fakeGeo === true) {
        navigator.getCurrentPosition(hookedObj.tmp2_successCallback, hookedObj.tmp2_errorCallback, hookedObj.tmp2_options);
        return Math.floor(Math.random() * 10000); // random id
      } else {
        hookedObj.watchPosition(hookedObj.tmp2_successCallback, hookedObj.tmp2_errorCallback, hookedObj.tmp2_options);
      }
    } else {
      setTimeout(waitWatchPosition, WAIT_TIME);
    }
  }

  Object.getPrototypeOf(navigator.geolocation).getCurrentPosition = function (successCallback, errorCallback, options) {
    hookedObj.tmp_successCallback = successCallback;
    hookedObj.tmp_errorCallback = errorCallback;
    hookedObj.tmp_options = options;
    waitGetCurrentPosition();
  };
  Object.getPrototypeOf(navigator.geolocation).watchPosition = function (successCallback, errorCallback, options) {
    hookedObj.tmp2_successCallback = successCallback;
    hookedObj.tmp2_errorCallback = errorCallback;
    hookedObj.tmp2_options = options;
    waitWatchPosition();
  };

  const instantiate = (constructor, args) => {
    const bind = Function.bind;
    const unbind = bind.bind(bind);
    return new (unbind(constructor, null).apply(null, args));
  }

  Blob = function (_Blob) {
    function secureBlob(...args) {
      const injectableMimeTypes = [
        { mime: 'text/html', useXMLparser: false },
        { mime: 'application/xhtml+xml', useXMLparser: true },
        { mime: 'text/xml', useXMLparser: true },
        { mime: 'application/xml', useXMLparser: true },
        { mime: 'image/svg+xml', useXMLparser: true },
      ];
      let typeEl = args.find(arg => (typeof arg === 'object') && (typeof arg.type === 'string') && (arg.type));

      if (typeof typeEl !== 'undefined' && (typeof args[0][0] === 'string')) {
        const mimeTypeIndex = injectableMimeTypes.findIndex(mimeType => mimeType.mime.toLowerCase() === typeEl.type.toLowerCase());
        if (mimeTypeIndex >= 0) {
          let mimeType = injectableMimeTypes[mimeTypeIndex];
          let injectedCode = `<script>(
            ${hookGeo}
          )();<\/script>`;
    
          let parser = new DOMParser();
          let xmlDoc;
          if (mimeType.useXMLparser === true) {
            xmlDoc = parser.parseFromString(args[0].join(''), mimeType.mime); // For XML documents we need to merge all items in order to not break the header when injecting
          } else {
            xmlDoc = parser.parseFromString(args[0][0], mimeType.mime);
          }

          if (xmlDoc.getElementsByTagName("parsererror").length === 0) { // if no errors were found while parsing...
            xmlDoc.documentElement.insertAdjacentHTML('afterbegin', injectedCode);
    
            if (mimeType.useXMLparser === true) {
              args[0] = [new XMLSerializer().serializeToString(xmlDoc)];
            } else {
              args[0][0] = xmlDoc.documentElement.outerHTML;
            }
          }
        }
      }

      return instantiate(_Blob, args); // arguments?
    }

    // Copy props and methods
    let propNames = Object.getOwnPropertyNames(_Blob);
    for (let i = 0; i < propNames.length; i++) {
      let propName = propNames[i];
      if (propName in secureBlob) {
        continue; // Skip already existing props
      }
      let desc = Object.getOwnPropertyDescriptor(_Blob, propName);
      Object.defineProperty(secureBlob, propName, desc);
    }

    secureBlob.prototype = _Blob.prototype;
    return secureBlob;
  }(Blob);

  window.addEventListener('message', function (event) {
    if (event.source !== window) {
      return;
    }
    const message = event.data;
    switch (message.method) {
      case 'updateLocation':
        if ((typeof message.info === 'object') && (typeof message.info.coords === 'object')) {
          hookedObj.genLat = message.info.coords.lat;
          hookedObj.genLon = message.info.coords.lon;
          hookedObj.fakeGeo = message.info.fakeIt;
        }
        break;
      default:
        break;
    }
  }, false);
  //]]>
}
          )();</script><rect width="1000" height="600" x="0" y="0" fill="#fefae0"/><g><circle r="166.66666666666666" cx="307.4293772379557" cy="329.6516517174226" fill="#606c38" transform="matrix(0.8880189749003885,0,0,0.8880189749003885,0,7.263085293722156)"/><path d="M308.5478582185817 308.8104347766508L308.5478582185817 308.8104347766508L374.2378384728563 308.8104347766508Q380.5390356195494 318.0101826108226 380.5390356195494 331.1481786616776Q380.5390356195494 344.254668726799 375.12000607339337 352.4777310032335L375.12000607339337 352.4777310032335L370.5831441277744 352.4777310032335L370.5831441277744 385.6850399663056Q348.74949601448316 404.6516433778516 312.9586962212668 404.6516433778516L312.9586962212668 404.6516433778516Q291.1565540937089 404.6516433778516 274.20633376910473 396.86966490168567L274.20633376910473 396.86966490168567Q255.71232014356073 388.58359065378437 245.50438076591806 372.61005588691756L245.50438076591806 372.61005588691756Q234.31975583053796 355.12423380484455 234.31975583053796 329.6358913464713L234.31975583053796 329.6358913464713Q234.31975583053796 293.4355137387198 256.0273800008954 273.61824871237036L256.0273800008954 273.61824871237036Q276.6322946705816 254.65164530082436 311.8559867205955 254.65164530082436L311.8559867205955 254.65164530082436Q329.2472908454682 254.65164530082436 344.71672984059956 259.88163893257956Q360.1546628499975 265.08012657860127 369.13386878403503 272.8305990690337L369.13386878403503 272.8305990690337Q369.13386878403503 279.4783620587948 367.5270635116283 289.11919369323516Q365.92025823922154 298.7600253276755 363.4942973377448 303.8324890307633L363.4942973377448 303.8324890307633L305.113705773634 303.8324890307633Q301.5535293857524 307.61320731877913 298.4029308124059 314.7020541088088Q295.25233223905946 321.7909008988384 295.25233223905946 330.99064873301023L295.25233223905946 330.99064873301023Q295.25233223905946 343.5930430263963 301.5535293857524 350.8079137593598L301.5535293857524 350.8079137593598Q307.09858287484224 357.3296528061871 315.73122296581175 357.3296528061871L315.73122296581175 357.3296528061871Q319.29139935369324 357.3296528061871 319.29139935369324 354.90369190471023L319.29139935369324 354.90369190471023L319.29139935369324 352.3517070602996L318.0626659100882 352.3517070602996Q310.75327721992426 352.3517070602996 305.93286140270413 346.6491236425424Q301.1124455854839 340.9465402247852 301.1124455854839 330.3290230326075L301.1124455854839 330.3290230326075Q301.1124455854839 317.0334970530852 308.5478582185817 308.8104347766508Z " fill="#283618" transform="matrix(0.8880189749003885,0,0,0.8880189749003885,0,7.263085293722156)"/><path d="M605.6023324741718 317.44893997762284L605.6023324741718 313.4561850787498Q605.6023324741718 310.4793382310694 603.3578844540954 310.4793382310694L603.3578844540954 310.4793382310694Q601.2788168144456 310.4793382310694 601.2788168144456 312.9600439374697L601.2788168144456 312.9600439374697L601.2788168144456 321.51257218239294Q601.9403383361522 322.1032163982025 603.2633813795658 322.1032163982025Q604.6100501916118 322.1032163982025 605.1061913328919 321.11093411564235Q605.6023324741718 320.1186518330822 605.6023324741718 317.44893997762284L605.6023324741718 317.44893997762284ZM608.6736823963819 347.0992796112652L608.6736823963819 347.0992796112652Q603.3578844540954 347.0992796112652 599.6250130101786 346.3432550150289L599.6250130101786 346.3432550150289Q599.3651295552223 347.0992796112652 599.3651295552223 347.76080113297195L599.3651295552223 347.76080113297195Q599.3651295552223 349.60361108629803 601.987589873417 350.21788107074Q604.6100501916118 350.832151055182 608.6736823963819 350.832151055182L608.6736823963819 350.832151055182Q621.6206036069285 350.832151055182 630.7637760676613 347.02840230536805L630.7637760676613 347.02840230536805Q639.7415681479673 349.3437276313418 644.7266053294005 357.163857048661L644.7266053294005 357.163857048661Q648.7902375341706 363.5428145794048 648.7902375341706 372.1898458988575L648.7902375341706 372.1898458988575Q648.7902375341706 387.5465955099074 635.7488132490944 396.0991237548305Q622.7073889640182 404.6516519997537 602.1529702538437 404.6516519997537Q581.5985515436693 404.6516519997537 570.3763114432867 397.3512894923469L570.3763114432867 397.3512894923469Q560.0045990136699 390.7124485066469 560.0045990136699 380.0808526220739L560.0045990136699 380.0808526220739Q560.0045990136699 376.0172204173038 561.918286272893 372.23709743612227Q563.8083477634838 368.45697445494073 566.3126792385166 367.0394283369977L566.3126792385166 367.0394283369977Q570.4708145178162 370.5360420945905 578.5508273900917 372.6859870401376Q586.6544660309995 374.83593198568457 595.2069942759227 374.83593198568457Q603.7595225208458 374.83593198568457 606.2166024586139 374.17441046397784Q608.6736823963819 373.512888942271 608.6736823963819 371.8590851380041L608.6736823963819 371.8590851380041Q608.6736823963819 371.0321832358706 608.1775412551018 370.1816555651048L608.1775412551018 370.1816555651048Q604.0194059758021 371.1030605417678 597.7822030568526 371.1030605417678L597.7822030568526 371.1030605417678Q581.763931924096 371.1030605417678 572.6207594633632 366.5432871957176L572.6207594633632 366.5432871957176Q561.4930224375101 361.06210887300443 561.4930224375101 350.0052491530485L561.4930224375101 350.0052491530485Q561.4930224375101 345.68173349332216 563.2413293163066 341.9961135866702Q564.989636195103 338.28686791138585 568.3917468781664 336.4676837266922L568.3917468781664 336.4676837266922Q563.8083477634838 333.6562172594385 560.6188689981119 327.9151554817691Q557.42939023274 322.1740937040997 557.42939023274 313.7869458396032L557.42939023274 313.7869458396032Q557.42939023274 297.83955201274375 569.3840291607265 288.6255022461138Q581.338668088713 279.41145247948384 600.451914912312 279.41145247948384L600.451914912312 279.41145247948384Q609.665964678942 279.41145247948384 618.2184929238651 282.48280240169385L618.2184929238651 282.48280240169385L618.2184929238651 276.67086331812726Q623.1326527994011 274.7571760589041 631.2126656716765 274.7571760589041Q639.3163043125844 274.7571760589041 643.5453168977812 277.4977652202607L643.5453168977812 277.4977652202607Q648.695734459641 280.8289985974269 648.695734459641 289.21614646192336L648.695734459641 289.21614646192336Q648.695734459641 293.87042288250314 647.7507037143456 296.68188934975683Q646.8056729690503 299.51698158564295 644.9628630157243 302.588331507853L644.9628630157243 302.588331507853Q647.1364337299036 308.0695098305662 647.1364337299036 316.19677424010644L647.1364337299036 316.19677424010644Q647.1364337299036 330.91562809808187 636.6938439943898 338.99564097035733Q626.2748800275082 347.0992796112652 608.6736823963819 347.0992796112652ZM735.166047654168 315.6297557929292L735.166047654168 331.907910380642Q735.166047654168 337.88522984463526 736.4890906975816 341.5472239826549Q737.8357595096275 345.1855923520421 741.1433671181612 347.2646599916919L741.1433671181612 347.2646599916919Q741.2378701926908 347.6899238270749 741.2378701926908 348.8475864900617L741.2378701926908 348.8475864900617L741.2378701926908 350.33600991390193Q741.2378701926908 362.12526846146176 734.1028880657107 368.69323214126456L734.1028880657107 368.69323214126456Q727.7711820722317 374.50517122483114 718.4862549997047 374.50517122483114L718.4862549997047 374.50517122483114Q712.1545490062256 374.50517122483114 706.9332541384687 371.5283243771507Q701.6883335020793 368.5278517608379 699.4438854820028 362.881293057698L699.4438854820028 362.881293057698Q696.6324190147491 362.881293057698 696.6324190147491 365.6218822190546L696.6324190147491 365.6218822190546Q696.6324190147491 367.96083331366066 699.5383885565323 370.86680285544395L699.5383885565323 370.86680285544395Q694.1280875397163 374.50517122483114 683.2602339688194 374.50517122483114L683.2602339688194 374.50517122483114Q667.9034843577696 374.50517122483114 658.713060359772 366.16527489759943Q649.546262130407 357.8253785703677 649.546262130407 342.8230154888036Q649.546262130407 327.8206524072396 659.2564530383169 319.5988849231698L659.2564530383169 319.5988849231698Q668.1397420440934 312.2276451098658 682.2679516862593 312.2276451098658L682.2679516862593 312.2276451098658Q687.0876084872657 312.2276451098658 691.5765045274188 312.88916663157255L691.5765045274188 312.88916663157255Q694.5533513750992 313.4561850787498 694.8132348300554 313.5506881532794L694.8132348300554 313.5506881532794Q695.0494925163792 312.7237862511459 695.0494925163792 312.13314203533633L695.0494925163792 312.13314203533633Q695.0494925163792 309.9831970897893 691.3874983783596 309.227172493553Q687.7491300089725 308.47114789731665 681.8426878508764 308.47114789731665L681.8426878508764 308.47114789731665Q669.2974047070802 308.47114789731665 660.4141157013037 313.5506881532794L660.4141157013037 313.5506881532794Q656.3504834965336 306.6519637126231 656.3504834965336 296.1148709025797L656.3504834965336 296.1148709025797Q656.3504834965336 290.113925669954 657.8389069203738 287.20795612817074L657.8389069203738 287.20795612817074Q663.816226384367 284.4673669668141 673.0539019196294 282.36467355853193Q682.2679516862593 280.23835438161734 692.4742837354494 280.23835438161734L692.4742837354494 280.23835438161734Q713.5720951241686 280.23835438161734 724.3690713891683 289.4524041482473Q735.166047654168 298.69007968350957 735.166047654168 315.6297557929292L735.166047654168 315.6297557929292ZM692.0726456686989 335.9715425854121L692.0726456686989 335.9715425854121Q688.5760319111059 335.9715425854121 688.5760319111059 339.13739558215167L688.5760319111059 339.13739558215167Q688.5760319111059 342.11424242983213 692.639664115876 342.11424242983213L692.639664115876 342.11424242983213Q695.4747563517622 342.11424242983213 696.7977993951757 340.7439478491538Q698.1208424385893 339.3736532684755 698.1208424385893 335.9715425854121L698.1208424385893 335.9715425854121Q698.1208424385893 335.9715425854121 692.0726456686989 335.9715425854121ZM749.6958953630844 344.52407083033535L749.6958953630844 320.5202898998328L754.8463129249442 320.5202898998328Q759.0044482042439 320.5202898998328 759.0044482042439 317.77970073847615L759.0044482042439 317.77970073847615Q759.0044482042439 317.44893997762284 758.8390678238172 316.787418455916L758.8390678238172 316.787418455916L740.2455879101307 316.787418455916Q738.4027779568047 310.97547937234947 738.4027779568047 303.79324570810456Q738.4027779568047 296.61101204385966 739.4895633138943 292.12211600370665L739.4895633138943 292.12211600370665Q744.2147170403713 289.1216433873939 752.5309875989706 282.9789435429739L752.5309875989706 282.9789435429739Q754.8463129249442 277.33238483983405 758.6028101374934 265.04698515099415L758.6028101374934 265.04698515099415Q759.0989512787734 263.36955557809483 759.7604728004802 261.81025484835743L759.7604728004802 261.81025484835743Q766.2339334057535 260.1328252754582 774.5502039643528 260.1328252754582Q782.8428487543198 260.1328252754582 790.8992358579628 261.8811321542546L790.8992358579628 261.8811321542546L790.8992358579628 282.22291894673765L805.2637031864526 282.22291894673765Q810.0833599874591 289.5469072227768 810.0833599874591 299.42247851111347L810.0833599874591 299.42247851111347Q810.0833599874591 303.9113745512665 808.8548200185751 308.6365282777434Q807.6026542810587 313.3853077728526 805.2637031864526 316.6929153813865L805.2637031864526 316.6929153813865L793.4035673329956 316.6929153813865L793.4035673329956 329.23819852518267Q793.4035673329956 339.86979440975557 802.2868563387722 339.86979440975557L802.2868563387722 339.86979440975557L805.8543474022622 339.86979440975557Q807.6026542810587 346.17787463460223 807.6026542810587 350.832151055182L807.6026542810587 350.832151055182Q807.6026542810587 362.2906488418884 800.4204206168138 368.409722917676Q793.2381869525689 374.50517122483114 779.5588669144183 374.50517122483114Q765.9031726449002 374.50517122483114 757.7995340039923 366.92129949383576Q749.6958953630844 359.31380199420795 749.6958953630844 344.52407083033535L749.6958953630844 344.52407083033535ZM901.1134465280362 315.70063309882636L900.8771888417123 331.907910380642Q900.8771888417123 337.88522984463526 902.200231885126 341.5472239826549Q903.5232749285394 345.1855923520421 906.8545083057056 347.2646599916919L906.8545083057056 347.2646599916919Q906.9490113802351 347.6899238270749 906.9490113802351 348.8475864900617L906.9490113802351 348.8475864900617L906.9490113802351 350.33600991390193Q906.9490113802351 361.79450770060834 900.3337961631676 368.14983946271974Q893.7422067147322 374.50517122483114 883.2996169792184 374.50517122483114Q872.8806530123368 374.50517122483114 866.4071924070635 368.6223548353674L866.4071924070635 368.6223548353674Q858.8469464447005 361.88901077513793 858.8469464447005 348.18606496835497L858.8469464447005 348.18606496835497Q858.8469464447005 342.3741258847884 859.3903391232453 337.9324813819001Q859.9337318017901 333.49083687901185 860.1227379508491 331.5771496197887Q860.3353698685407 329.6634623605656 860.5952533234969 328.0096585562986Q860.8315110098208 326.3322289833994 860.8315110098208 323.09549868076266Q860.8315110098208 319.85876837812606 859.9573575704226 318.4412222601829Q859.1068298996568 317.0236761422398 857.5475291699192 317.0236761422398Q856.0118542088144 317.0236761422398 854.8541915458275 317.708823432579L854.8541915458275 317.708823432579L855.9409769029172 331.2463888589353Q854.4525534790769 339.63353672343175 854.4525534790769 349.01296687048836Q854.4525534790769 358.39239701754497 858.6815660642737 366.1180233603347L858.6815660642737 366.1180233603347Q850.5306758861011 374.50517122483114 835.835447796758 374.50517122483114L835.835447796758 374.50517122483114Q827.4482999322615 374.50517122483114 821.3056000878416 370.1107782592076L821.3056000878416 370.1107782592076Q814.1706179608616 365.12574107777453 814.1706179608616 356.90397359370473L814.1706179608616 356.90397359370473L814.1706179608616 259.96744489503146Q818.1397470911021 257.65211956905785 823.7626800256096 256.1636961452176Q829.3619871914847 254.65164695274498 835.1030489691541 254.65164695274498L835.1030489691541 254.65164695274498Q844.6478594966375 254.65164695274498 850.8614366469545 258.38451839666175L850.8614366469545 258.38451839666175Q857.9255414680374 262.8025371309176 857.9255414680374 271.0243046149874L857.9255414680374 271.0243046149874L857.9255414680374 278.91531133820376Q850.6960562665279 279.31694940495436 844.0572152808278 283.07344661750346L844.0572152808278 283.07344661750346Q838.3397792717908 286.38105422603724 838.3397792717908 289.1216433873939L838.3397792717908 289.1216433873939Q838.3397792717908 290.04304836405686 839.0013007934975 290.75182142302833Q839.6628223152043 291.4605944819999 840.5842272918674 291.6259748624266L840.5842272918674 291.6259748624266Q844.0572152808278 287.53871688902416 850.4125470429392 284.7981277276675Q856.7678788050507 282.0575385663109 865.4857874304005 282.0575385663109Q874.2036960557504 282.0575385663109 881.1969235709361 284.72725042177035L881.1969235709361 284.72725042177035Q889.9857095021832 288.05848379893655 895.0652497581457 294.8627051650633L895.0652497581457 294.8627051650633Q901.1134465280362 303.15534995503026 901.1134465280362 315.70063309882636L901.1134465280362 315.70063309882636ZM933.6933814720944 374.10353315808067L933.6933814720944 374.10353315808067Q923.7941844151253 374.10353315808067 917.9113680256614 370.5360420945905L917.9113680256614 370.5360420945905Q911.3434043458586 366.7795448820414 911.3434043458586 359.4791823746346L911.3434043458586 359.4791823746346L911.3434043458586 316.6929153813865Q906.4292444703226 309.81781670936266 906.4292444703226 299.70598773470203Q906.4292444703226 289.61778452867395 911.3434043458586 282.22291894673765L911.3434043458586 282.22291894673765L924.0540678700814 282.22291894673765Q933.858761852521 282.22291894673765 938.0877744377178 288.5546249402166L938.0877744377178 288.5546249402166Q936.008706798068 290.86995026619024 934.4257802996981 294.4374413296804Q932.8428538013284 298.0049323931704 932.8428538013284 299.5406073542754Q932.8428538013284 301.07628231538035 933.6461299348296 301.8323069116167Q934.4257802996981 302.588331507853 935.9142037235385 302.588331507853L935.9142037235385 302.588331507853Q938.843799033954 291.035330646617 946.9710634434944 285.64865539843333L946.9710634434944 285.64865539843333Q953.7044075037239 281.0652562837508 963.5799787920606 281.0652562837508L963.5799787920606 281.0652562837508Q975.8653784809005 281.0652562837508 982.8586059960862 286.31017692014007L982.8586059960862 286.31017692014007Q985.3393117024866 292.94901790584015 985.3393117024866 302.54107997058827Q985.3393117024866 312.13314203533633 981.5355629526728 319.95327145265554L981.5355629526728 319.95327145265554Q978.7004707167866 321.4416948764958 973.7154335353536 322.48122869632067Q968.7303963539205 323.52076251614557 963.6744818665902 323.52076251614557Q958.5949416106275 323.52076251614557 954.578560943122 322.8119894571741Q950.5385545069844 322.1032163982025 948.7193703222908 321.51257218239294L948.7193703222908 321.51257218239294Q948.057848800584 322.1740937040997 948.057848800584 323.4262594416161Q948.057848800584 324.6784251791324 949.6644010675861 325.29269516357436Q951.2945791032207 325.9305909166488 955.121953621667 326.6629897442527L955.121953621667 326.6629897442527L955.121953621667 368.36247138041125Q946.0496584668314 374.10353315808067 933.6933814720944 374.10353315808067Z " fill="#606c38" transform="matrix(0.8880189749003885,0,0,0.8880189749003885,0,7.263085293722156)"/></g></svg>